#!OML:ASF F:\VICON\USERDATA\INSTALL\rory3\rory3.ASF
:FULLY-SPECIFIED
:DEGREES
245
root 0.834729 17.2165 19.6621 -0.665597 -4.15286 -2.1661
lowerback 5.76892 1.76718 2.43695
upperback -0.641301 2.61199 2.16632
thorax -3.89122 1.26774 0.635728
lowerneck -15.4762 -3.2697 -10.2376
upperneck 24.1902 -3.58469 6.51779
head 10.634 -1.81722 3.58223
rclavicle 1.76577e-014 -2.78299e-015
rhumerus -26.5723 -9.16405 -76.8232
rradius 38.8985
rwrist 1.02606
rhand -14.8968 14.241
rfingers 7.12502
rthumb 11.2643 -15.4365
lclavicle 1.76577e-014 -2.78299e-015
lhumerus -42.5466 14.7489 81.551
lradius 19.5903
lwrist -24.4134
lhand -6.01258 28.4837
lfingers 7.12502
lthumb 19.8203 57.4931
rfemur 8.42316 4.45378 24.6543
rtibia 44.114
rfoot 14.5644 4.37867
rtoes 6.98924
lfemur -25.0506 1.6346 -19.2763
ltibia 29.2629
lfoot -2.3818 -2.21877
ltoes 2.32888
246
root 0.850458 17.2413 19.863 -0.869999 -4.24803 -1.67007
lowerback 5.98881 1.7587 2.00011
upperback -0.59195 2.57117 2.03983
thorax -3.97693 1.25491 0.746323
lowerneck -15.5533 -3.19573 -10.2429
upperneck 24.0569 -3.46726 6.52583
head 10.5885 -1.76001 3.59929
rclavicle -1.55425e-014 -6.75868e-015
rhumerus -27.0472 -9.25098 -76.9151
rradius 38.9211
rwrist 0.726274
rhand -14.8417 13.6207
rfingers 7.12502
rthumb 11.3174 -16.054
lclavicle -1.55425e-014 -6.75868e-015
lhumerus -42.5453 14.9803 81.354
lradius 20.0329
lwrist -23.1774
lhand -4.30675 32.0516
lfingers 7.12502
lthumb 21.4594 60.883
rfemur 6.87376 4.6441 24.0531
rtibia 47.0714
rfoot 16.692 3.92162
rtoes 9.07928
lfemur -24.0815 1.58147 -19.9185
ltibia 29.2967
lfoot -2.81832 -1.98655
ltoes 3.53575
247
root 0.871714 17.2683 20.0583 -1.03658 -4.41422 -0.862465
lowerback 6.10692 1.76419 1.31518
upperback -0.473171 2.51916 1.80047
thorax -3.93817 1.24171 0.884972
lowerneck -15.4253 -3.14334 -10.0971
upperneck 23.6162 -3.38774 6.36336
head 10.3894 -1.72527 3.51672
rclavicle -2.46245e-014 -7.55382e-015
rhumerus -27.3713 -9.45965 -77.0799
rradius 38.9371
rwrist 0.58477
rhand -14.8033 13.2593
rfingers 7.12502
rthumb 11.3544 -16.4133
lclavicle -2.46245e-014 -7.55382e-015
lhumerus -42.2757 15.4271 80.9945
lradius 20.0098
lwrist -22.9709
lhand -4.07994 31.0808
lfingers 7.12502
lthumb 21.6772 59.8872
rfemur 5.2188 4.70802 22.9745
rtibia 50.0512
rfoot 17.7867 3.78122
rtoes 9.77672
lfemur -23.0834 1.46794 -20.9264
ltibia 29.1408
lfoot -2.93468 -1.85156
ltoes 4.95107
248
root 0.882823 17.2923 20.2497 -1.18398 -4.586 -0.237142
lowerback 6.19669 1.7706 0.640287
upperback -0.323419 2.4709 1.65659
thorax -3.85491 1.23052 1.11823
lowerneck -15.4473 -3.12155 -10.1409
upperneck 23.2796 -3.34526 6.41687
head 10.2691 -1.69871 3.54201
rclavicle 1.59773e-014 3.33958e-014
rhumerus -27.4297 -9.99916 -77.201
rradius 38.5166
rwrist 0.907013
rhand -14.7626 13.5429
rfingers 7.12502
rthumb 11.3937 -16.1275
lclavicle 1.59773e-014 3.33958e-014
lhumerus -41.9681 15.5493 80.8353
lradius 19.9267
lwrist -22.7734
lhand -5.18894 29.619
lfingers 7.12502
lthumb 20.6119 58.5447
rfemur 3.57555 4.77399 22.1994
rtibia 52.9326
rfoot 17.8614 3.30635
rtoes 9.90387
lfemur -22.0696 1.29548 -21.6751
ltibia 28.8411
lfoot -3.02412 -1.5957
ltoes 5.41341
249
root 0.885605 17.312 20.4483 -1.35131 -4.7996 0.00560662
lowerback 6.29085 1.75146 0.242419
upperback -0.20417 2.41564 1.67194
thorax -3.80055 1.21093 1.36122
lowerneck -15.6223 -3.00274 -10.1888
upperneck 23.1559 -3.14832 6.44282
head 10.2402 -1.605 3.58337
rclavicle 7.3923e-015 2.0276e-014
rhumerus -27.6288 -10.3948 -77.2783
rradius 37.8796
rwrist 1.54379
rhand -15.0121 14.7049
rfingers 7.12502
rthumb 11.1531 -14.9787
lclavicle 7.3923e-015 2.0276e-014
lhumerus -41.6359 15.6525 80.7394
lradius 19.7568
lwrist -22.3114
lhand -6.59409 28.5266
lfingers 7.12502
lthumb 19.2612 57.5928
rfemur 2.06487 4.8083 21.9394
rtibia 55.6274
rfoot 16.6708 2.68228
rtoes 7.65344
lfemur -20.9396 1.33145 -21.9828
ltibia 28.449
lfoot -3.79419 -1.27771
ltoes 3.50039
250
root 0.892523 17.3317 20.6518 -1.56548 -4.83151 0.563634
lowerback 6.34218 1.66646 -0.340953
upperback -0.0953472 2.25207 1.52052
thorax -3.72909 1.13891 1.54778
lowerneck -15.8327 -2.84167 -9.97472
upperneck 23.0895 -2.92064 6.31109
head 10.2284 -1.49244 3.52876
rclavicle -6.39217e-015 -1.59028e-014
rhumerus -27.8992 -10.506 -77.492
rradius 37.3378
rwrist 1.82817
rhand -15.2744 15.5228
rfingers 7.12502
rthumb 10.9 -14.1743
lclavicle -6.39217e-015 -1.59028e-014
lhumerus -41.2492 15.7956 80.4813
lradius 19.5023
lwrist -22.1631
lhand -5.99695 29.2502
lfingers 7.12502
lthumb 19.8353 58.2581
rfemur 0.658913 4.50916 21.2222
rtibia 58.1059
rfoot 14.5274 2.36536
rtoes 5.10503
lfemur -19.7396 1.27296 -22.6914
ltibia 28.0571
lfoot -4.74331 -0.845402
ltoes 2.4497
251
root 0.901252 17.3536 20.8534 -1.76127 -4.66385 1.36339
lowerback 6.31083 1.55455 -1.11466
upperback 0.0651651 2.03672 1.31207
thorax -3.55802 1.04231 1.79047
lowerneck -15.9783 -2.80047 -9.95728
upperneck 22.9317 -2.83016 6.24565
head 10.1898 -1.45249 3.51078
rclavicle -2.02512e-014 -1.39149e-014
rhumerus -27.7647 -10.5937 -77.6657
rradius 36.5148
rwrist 1.92051
rhand -15.4868 15.635
rfingers 7.12502
rthumb 10.6952 -14.0728
lclavicle -2.02512e-014 -1.39149e-014
lhumerus -40.7785 15.7373 80.4641
lradius 19.4859
lwrist -22.0129
lhand -4.9256 30.3769
lfingers 7.12502
lthumb 20.8649 59.2749
rfemur -0.807522 3.95209 20.1783
rtibia 60.407
rfoot 12.543 2.53958
rtoes 4.7919
lfemur -18.5979 1.10558 -23.6996
ltibia 27.7084
lfoot -5.17368 -0.588508
ltoes 3.61484
252
root 0.919128 17.377 21.0556 -1.83219 -4.50662 1.74027
lowerback 6.16887 1.41936 -1.37084
upperback 0.240442 1.83632 1.25804
thorax -3.29514 0.943303 1.90314
lowerneck -16.2904 -2.81262 -10.1309
upperneck 22.8774 -2.76916 6.26281
head 10.2279 -1.4324 3.55313
rclavicle 9.61621e-015 0
rhumerus -27.5364 -10.6781 -77.7439
rradius 35.7438
rwrist 2.2915
rhand -15.3592 15.2207
rfingers 7.12502
rthumb 10.8183 -14.4807
lclavicle 9.61621e-015 0
lhumerus -40.1377 15.5074 80.7033
lradius 19.3734
lwrist -21.6604
lhand -5.10586 30.1156
lfingers 7.12502
lthumb 20.6917 59.0326
rfemur -2.32061 3.35207 19.511
rtibia 62.4353
rfoot 10.8748 2.2267
rtoes 6.83221
lfemur -17.5894 0.87495 -24.277
ltibia 27.4215
lfoot -5.57777 -0.337857
ltoes 4.20122
253
root 0.950133 17.385 21.2355 -1.67457 -4.15536 2.00813
lowerback 6.09928 1.18959 -1.31043
upperback 0.179358 1.53138 1.14246
thorax -3.3007 0.790341 1.77834
lowerneck -16.3606 -2.77948 -10.1251
upperneck 22.8473 -2.69803 6.19288
head 10.2229 -1.40599 3.53584
rclavicle 4.57205e-015 1.19271e-014
rhumerus -27.8075 -10.7654 -77.888
rradius 35.4762
rwrist 2.69188
rhand -15.1489 14.4468
rfingers 7.12502
rthumb 11.0211 -15.2439
lclavicle 4.57205e-015 1.19271e-014
lhumerus -39.6655 15.2331 80.8078
lradius 19.2213
lwrist -21.2909
lhand -6.05645 29.3689
lfingers 7.12502
lthumb 19.7781 58.3826
rfemur -3.99125 2.42406 18.8124
rtibia 64.2067
rfoot 9.08055 1.49822
rtoes 7.0627
lfemur -16.9102 0.559991 -24.8084
ltibia 27.145
lfoot -6.04517 -0.199392
ltoes 4.01912
